<svg id="b64694cd-168c-466c-93e5-f9e13865e89b" data-name="Layer 1" xmlns="http://www.w3.org/2000/svg" width="4.72778in" height="0.50338in" viewBox="0 0 340.40048 36.24316"><defs><style>.eea872bd-e2ba-4f82-ac17-cfd0f279d398{fill:#231f20;}.f9c3df8d-e711-4a14-82c0-e5e793996cea{fill:#9d9795;}.ea8f2649-8e43-4bf7-897e-7b5c30febc3a{fill:#cfb991;}</style></defs><title>Polytech_H-Full-RGB</title><path class="eea872bd-e2ba-4f82-ac17-cfd0f279d398" d="M203.77348,13.87549h2.13477a1.97194,1.97194,0,0,1,2.08984,2.17871,1.98739,1.98739,0,0,1-2.2002,2.17774h-.86914v3.10254h-1.15527Zm1.15527,3.42188h.73731c.792,0,1.166-.40723,1.166-1.26563,0-.77051-.39648-1.19922-1.08886-1.19922h-.81446Z"/><path class="eea872bd-e2ba-4f82-ac17-cfd0f279d398" d="M212.61821,18.45166c0,2.03614-.72657,2.99317-2.07911,2.99317-1.35351,0-2.05761-.92481-2.05761-2.97071,0-1.98047.82519-2.89355,2.1123-2.89355C211.9141,15.58057,212.61821,16.56006,212.61821,18.45166Zm-2.98145.02246c0,1.32032.26367,2.002.92383,2.002.63867,0,.90234-.68164.90234-1.99121,0-1.32032-.26367-1.93653-.90234-1.93653C209.93364,16.54834,209.63676,17.15381,209.63676,18.47412Z"/><path class="eea872bd-e2ba-4f82-ac17-cfd0f279d398" d="M213.56352,21.33448V13.51221h1.14355v7.82227Z"/><path class="eea872bd-e2ba-4f82-ac17-cfd0f279d398" d="M216.62114,15.6792c.48437,2.00293.90234,3.59766.96875,4.25781h.01074c.13183-.75878.5498-2.50781.97949-4.25781h1.15527l-1.63964,5.919c-.47266,1.72754-1.03418,1.87109-1.82618,1.87109a2.22084,2.22084,0,0,1-.47363-.04492v-.96777a3.76809,3.76809,0,0,0,.39649.02246c.52832,0,.69335-.29786.86914-1.05664L215.378,15.6792Z"/><path class="eea872bd-e2ba-4f82-ac17-cfd0f279d398" d="M220.15141,15.6792h.75977V14.23877H222.044V15.6792h.91308v.94629H222.044v3.30078c0,.35254.0664.54981.48437.54981a1.648,1.648,0,0,0,.34082-.02149v.84668a2.01293,2.01293,0,0,1-.748.11035c-.8252,0-1.21-.30859-1.21-1.28711v-3.499h-.75977Z"/><path class="eea872bd-e2ba-4f82-ac17-cfd0f279d398" d="M224.5518,18.78174c0,.84766.12109,1.70606.90234,1.70606a.84054.84054,0,0,0,.84668-.83692h1.10059a1.88614,1.88614,0,0,1-1.96973,1.79395c-1.7705,0-2.02441-1.541-2.02441-2.96,0-1.793.66016-2.9043,2.05762-2.9043,1.5957,0,1.98046,1.23242,1.98046,2.68457,0,.165-.01074.40723-.02246.5166Zm1.76074-.83594c0-.69336-.11035-1.41894-.84765-1.41894-.84668,0-.89063,1.01172-.90235,1.41894Z"/><path class="eea872bd-e2ba-4f82-ac17-cfd0f279d398" d="M232.0977,19.48584a1.83544,1.83544,0,0,1-1.92481,1.94727c-1.57324,0-1.98046-1.29785-1.98046-2.96973,0-1.5293.50585-2.88281,2.04589-2.88281a1.76526,1.76526,0,0,1,1.85938,1.88183h-1.15527c-.01075-.2207-.05469-.93554-.71485-.93554-.64941,0-.87988.72558-.87988,1.94726,0,1.27637.23047,2.002.8584,2.002.68164,0,.748-.68164.78027-.99024Z"/><path class="eea872bd-e2ba-4f82-ac17-cfd0f279d398" d="M234.08793,13.51221v2.76172a1.333,1.333,0,0,1,1.29883-.69336c.90234,0,1.41895.57226,1.41895,1.749v4.00489h-1.14453V17.561c0-.60547-.13184-1.001-.73633-1.001-.63867,0-.83692.50586-.83692,1.3418v3.43262h-1.13281V13.51221Z"/><path class="eea872bd-e2ba-4f82-ac17-cfd0f279d398" d="M238.004,17.43994c0-1.166,0-1.47461-.01074-1.76074h1.10058a4.863,4.863,0,0,1,.03223.63867,1.3273,1.3273,0,0,1,1.28808-.7373c.87989,0,1.45215.53906,1.45215,1.7168v4.03711h-1.14453V17.5503c0-.60547-.15429-.99024-.71484-.99024-.59473,0-.8584.35156-.8584,1.32031v3.45411H238.004Z"/><path class="eea872bd-e2ba-4f82-ac17-cfd0f279d398" d="M243.07524,15.6792h1.14355v5.65528h-1.14355Zm.01074-.91308V13.51221h1.14453v1.25391Z"/><path class="eea872bd-e2ba-4f82-ac17-cfd0f279d398" d="M249.0811,19.48584a1.83544,1.83544,0,0,1-1.92481,1.94727c-1.57324,0-1.98047-1.29785-1.98047-2.96973,0-1.5293.50586-2.88281,2.0459-2.88281a1.76527,1.76527,0,0,1,1.85938,1.88183h-1.15528c-.01074-.2207-.05468-.93554-.71484-.93554-.64941,0-.87988.72558-.87988,1.94726,0,1.27637.23047,2.002.8584,2.002.68164,0,.748-.68164.78027-.99024Z"/><path class="eea872bd-e2ba-4f82-ac17-cfd0f279d398" d="M253.22758,13.87549v7.459h-1.15527v-7.459Z"/><path class="eea872bd-e2ba-4f82-ac17-cfd0f279d398" d="M254.3936,17.43994c0-1.166,0-1.47461-.01075-1.76074h1.09961a4.6675,4.6675,0,0,1,.03321.63867,1.32572,1.32572,0,0,1,1.28711-.7373c.87988,0,1.45215.53906,1.45215,1.7168v4.03711h-1.14454V17.5503c0-.60547-.15332-.99024-.71484-.99024-.59375,0-.8584.35156-.8584,1.32031v3.45411H254.3936Z"/><path class="eea872bd-e2ba-4f82-ac17-cfd0f279d398" d="M260.212,19.65088a.81633.81633,0,0,0,.82519.90235.64938.64938,0,0,0,.72656-.70411c0-.46191-.21972-.69336-.91308-.957-1.27637-.47265-1.60645-.92383-1.60645-1.73828a1.55418,1.55418,0,0,1,1.76075-1.57324,1.59349,1.59349,0,0,1,1.7705,1.70508h-1.09961a.71607.71607,0,0,0-.7041-.8252.56657.56657,0,0,0-.61621.61621c0,.38574.19824.57227.91309.83594,1.166.44043,1.62793.88086,1.62793,1.80469,0,1.08886-.68164,1.71582-1.91407,1.71582a1.69587,1.69587,0,0,1-1.89257-1.78223Z"/><path class="eea872bd-e2ba-4f82-ac17-cfd0f279d398" d="M263.21489,15.6792h.75879V14.23877h1.13378V15.6792h.91309v.94629h-.91309v3.30078c0,.35254.06543.54981.4834.54981a1.65784,1.65784,0,0,0,.3418-.02149v.84668a2.02075,2.02075,0,0,1-.749.11035c-.82422,0-1.21-.30859-1.21-1.28711v-3.499h-.75879Z"/><path class="eea872bd-e2ba-4f82-ac17-cfd0f279d398" d="M266.73442,15.6792h1.14453v5.65528h-1.14453Zm.01172-.91308V13.51221h1.14355v1.25391Z"/><path class="eea872bd-e2ba-4f82-ac17-cfd0f279d398" d="M268.57133,15.6792h.75977V14.23877h1.13281V15.6792h.91309v.94629h-.91309v3.30078c0,.35254.06641.54981.48437.54981a1.648,1.648,0,0,0,.34082-.02149v.84668a2.01293,2.01293,0,0,1-.748.11035c-.8252,0-1.21-.30859-1.21-1.28711v-3.499h-.75977Z"/><path class="eea872bd-e2ba-4f82-ac17-cfd0f279d398" d="M275.876,19.70655c0,.792,0,1.34179.01074,1.62793h-1.08887a5.056,5.056,0,0,1-.05468-.66016,1.25619,1.25619,0,0,1-1.28711.75879c-.748,0-1.40821-.35156-1.40821-1.69434V15.6792h1.14356v3.7959c0,.61621.14355.97949.6709.97949.53906,0,.86914-.30859.86914-1.32031V15.6792H275.876Z"/><path class="eea872bd-e2ba-4f82-ac17-cfd0f279d398" d="M276.57914,15.6792h.75977V14.23877h1.13281V15.6792h.91309v.94629h-.91309v3.30078c0,.35254.06641.54981.48438.54981a1.64807,1.64807,0,0,0,.34082-.02149v.84668a2.013,2.013,0,0,1-.748.11035c-.82519,0-1.21-.30859-1.21-1.28711v-3.499h-.75977Z"/><path class="eea872bd-e2ba-4f82-ac17-cfd0f279d398" d="M280.97953,18.78174c0,.84766.1211,1.70606.90235,1.70606a.84056.84056,0,0,0,.84668-.83692h1.10058a1.88614,1.88614,0,0,1-1.96972,1.79395c-1.77051,0-2.02442-1.541-2.02442-2.96,0-1.793.66016-2.9043,2.05762-2.9043,1.5957,0,1.98047,1.23242,1.98047,2.68457,0,.165-.01074.40723-.02246.5166Zm1.76075-.83594c0-.69336-.11035-1.41894-.84766-1.41894-.84668,0-.89062,1.01172-.90234,1.41894Z"/><rect class="f9c3df8d-e711-4a14-82c0-e5e793996cea" x="191.32508" y="1.41748" width="0.71955" height="32.81072"/><path d="M71.24565,4.06371l-2.05554-.59839V1.98225H77.22c5.23,0,7.16009,1.67071,7.16009,5.62007,0,3.69471-2.10955,5.61-6.24326,5.61H74.88829v5.91645l2.08136.5984v1.379H69.138v-1.379l2.10761-.5984Zm3.64264-.066v7.3876l3.82618-.283c.94994-.43745,1.92921-1.01159,1.92921-3.396,0-1.8025-.08389-3.7086-3.58117-3.7086Z"/><path d="M114.21574,12.96225h-2.59687v6.16649l2.08135.5984v1.379h-7.8316v-1.379l2.10761-.5984V4.06371l-2.08157-.59839V1.98225h8.383c4.96961,0,6.78116,1.76313,6.78116,5.15175,0,2.6185-1.02184,3.98165-3.3825,4.91753l3.5385,6.92111,2.28626.7545v1.379h-5.33051Zm-2.59687-8.9505V11.297l3.87176-.26025c1.22895-.60922,1.82143-1.58358,1.82143-3.59057,0-2.1075-.68058-3.43446-2.8663-3.43446Z"/><path d="M125.06142,19.72714l2.08157-.57236V4.06371l-2.05553-.59839V1.98225h9.24305c5.22975,0,8.28211,3.153,8.28211,9.353,0,7.01568-3.16471,9.77094-8.68085,9.77094h-8.87035Zm5.75025-15.71539v15.117h2.73819c1.87958,0,5.12018-.30489,5.12018-7.20728,0-5.43793-.97668-7.90971-5.12018-7.90971Z"/><path d="M77.23022,31.06945c0,2.32461-1.34442,3.17927-3.547,3.17927-2.21239,0-3.547-1.30343-3.547-3.17927V26.4089l-.99811-.31264v-.87774h4.07629v.87774l-.98594.31264v4.66055c0,1.20244.46136,1.85658,1.77189,1.85658.64055,0,1.72713-.2,1.72713-1.91673V26.4089l-.99811-.31264v-.87774h3.499v.87774l-.9981.31264Z"/><path d="M84.25959,28.66952v4.27694l.98615.30069v.86926h-3.439v-.86926l1.01-.30069V26.87787l-.42859-.53937-.59638-.18609v-.93389h2.25142l4.3407,5.45895V26.4089l-.99789-.30058v-.8898h3.43883v.8898l-.99789.30058v7.71957H88.66046Z"/><path d="M98.24644,32.94646l.9979.30069v.86926h-4.088v-.86926l.99789-.30069V26.397l-.99789-.30069v-.87774h4.088v.87774l-.9979.30069Z"/><path d="M153.30156,32.94646l.99789.30069v.86926h-4.088v-.86926l.99789-.30069V26.397l-.99789-.30069v-.87774h4.088v.87774l-.99789.30069Z"/><path d="M108.59945,34.11641h-1.92386l-2.82572-7.70751-.99789-.31264v-.87774h4.30463v.87774l-1.01006.31264,1.87564,5.48307,1.91191-5.48307-.99789-.31264v-.87774h3.499v.87774l-.99811.31264Z"/><path d="M116.69436,26.4089l-.99789-.30058v-.8898h6.98587l.07213,2.74751h-1.11775l-.5412-1.56908H118.7866v2.501h2.30864v1.26251H118.7866v2.81366h2.3691l.70936-1.55945h1.09386l-.15622,2.70171h-7.10623v-.86926l.99789-.249Z"/><path d="M131.3065,30.48508h-.75759v2.46138l.99789.30069v.86926h-4.088v-.86926l.99789-.30069V26.4089l-.99789-.30058v-.8898H131.523c2.489,0,3.2584.96193,3.2584,2.465a2.1324,2.1324,0,0,1-1.43954,2.32831l1.42758,2.90218,1.25036.38477v.81767h-3.00605Zm-.75759-4.07618v3.11425l1.40678-.12015a1.86629,1.86629,0,0,0,.69741-1.55115c0-.88979-.23432-1.44295-1.14813-1.44295Z"/><path d="M139.64149,31.35087h1.23632l.26463,1.25046a3.59918,3.59918,0,0,0,1.87792.51709,2.30927,2.30927,0,0,0,.28853-.01206,1.3391,1.3391,0,0,0,.55315-1.07013c0-2.08018-4.25661-1.15432-4.25661-4.19643,0-1.39483,1.27468-2.72948,3.39082-2.72948a5.53537,5.53537,0,0,1,2.41683.61323v2.3447h-1.16714l-.42084-1.491a4.0564,4.0564,0,0,0-1.442-.28863,1.6057,1.6057,0,0,0-.24051.01206,1.23,1.23,0,0,0-.58921,1.04612c0,1.7796,4.22054,1.14226,4.22054,4.1243,0,1.61122-1.455,2.76554-3.41493,2.76554a5.03775,5.03775,0,0,1-2.70536-.80561Z"/><path d="M161.36008,26.421h-1.15431l-.53037,1.58709h-1.11692V25.21852h7.75563v2.78953h-1.09932l-.5119-1.58709h-1.25057v6.5255l.99811.30069v.86926h-4.08824v-.86926l.99789-.30069Z"/><path d="M173.29077,30.68953,170.958,26.4089l-.99789-.31264v-.87774h4.30463v.87774l-1.01006.31264,1.467,2.89786,1.47891-2.89786-.99789-.31264v-.87774h3.511v.87774l-.9981.31264-2.34471,4.25662v2.28094l.99811.30069v.86926h-4.08824v-.86926l1.01006-.30069Z"/><polygon points="177.053 15.564 175.7 19.129 169.712 19.129 169.712 12.249 173.104 12.249 173.541 14.175 175.049 14.175 175.049 8.381 173.541 8.381 173.104 10.239 169.712 10.239 169.712 4.012 175.44 4.012 176.533 7.706 178.595 7.706 178.465 1.982 163.987 1.982 163.987 3.465 166.043 4.064 166.043 19.155 163.961 19.727 163.961 21.106 178.751 21.106 179.089 15.564 177.053 15.564"/><path d="M102.17305,14.52947c0,4.8519-2.31628,6.86288-7.06422,6.86288-4.37121,0-7.53238-1.74607-7.53238-6.35594V4.06371l-2.08157-.59839V1.98225h7.80578V3.46532l-2.08157.59839v10.9727c0,2.758,1.2749,3.96936,4.31914,3.96936,2.10052,0,4.033-1.23093,4.033-4.22294V4.06371l-2.05554-.59839V1.98225h6.739V3.46532l-2.08157.59839Z"/><path d="M160.26587,14.52947c0,4.8519-2.31629,6.86288-7.06422,6.86288-4.37121,0-7.53238-1.74607-7.53238-6.35594V4.06371l-2.08157-.59839V1.98225h7.80578V3.46532l-2.08157.59839v10.9727c0,2.758,1.27489,3.96936,4.31914,3.96936,2.10052,0,4.033-1.23093,4.033-4.22294V4.06371l-2.05553-.59839V1.98225h6.739V3.46532l-2.08157.59839Z"/><path d="M32.33437,34.1343l4.11762-9.673H43.2735c9.8728,0,13.6198-4.05353,16.21131-10.14036.95858-2.25337,2.56457-6.02548.444-9.23373-2.1085-3.19061-6.58651-3.55934-9.77248-3.55934H13.8966L8.78232,13.53792h6.56237l-3.65134,8.58074H5.11613L0,34.1343Z"/><path class="f9c3df8d-e711-4a14-82c0-e5e793996cea" d="M58.07016,6.31508c-1.15271-1.74625-3.669-2.55991-7.91292-2.55991H15.37069l-3.21755,7.55529H18.7155l-5.55084,13.0356H6.5893l-3.21849,7.5618H30.86214l3.22033-7.5618H27.41329l.89914-2.11129h14.962c9.62294,0,12.18936-4.1557,14.1604-8.78512,1.06075-2.49307,1.98217-5.09663.63533-7.13457m-25.107,4.99538H43.95156c1.51409,0,1.29761.75985,1.09883,1.23074A3.6952,3.6952,0,0,1,41.531,14.67756H31.53Z"/><path class="ea8f2649-8e43-4bf7-897e-7b5c30febc3a" d="M50.15724,4.91534H16.13514L13.905,10.15409h6.56422L13.93189,25.50435H7.3556l-2.233,5.24432H30.09676l2.232-5.24432H25.66148L27.548,21.0746H43.27443c9.01453,0,11.28094-3.81848,13.095-8.07918,1.815-4.2625,2.80235-8.08008-6.21219-8.08008M41.531,15.83585H29.77816l2.41967-5.68176H43.95156c2.0797,0,2.91846,1.06912,2.1633,2.84133A4.80854,4.80854,0,0,1,41.531,15.83585"/><path class="f9c3df8d-e711-4a14-82c0-e5e793996cea" d="M181.13806,34.09247a1.90816,1.90816,0,1,1,1.90819-1.90812A1.91031,1.91031,0,0,1,181.13806,34.09247Zm0-3.42049a1.51234,1.51234,0,1,0,1.51238,1.51237A1.51409,1.51409,0,0,0,181.13806,30.672Z"/><path class="f9c3df8d-e711-4a14-82c0-e5e793996cea" d="M180.89623,32.35877v.70913h-.37511V31.29767h.77853c.38535,0,.59351.21067.59351.48557a.42529.42529,0,0,1-.257.41883c.08738.0334.221.12329.221.44191v.08731a1.33907,1.33907,0,0,0,.02566.33661h-.36478a1.26441,1.26441,0,0,1-.036-.39825V32.644c0-.19268-.04881-.28521-.334-.28521Zm0-.30572h.3212c.20809,0,.29031-.07964.29031-.22615,0-.14387-.09505-.22609-.28264-.22609h-.32887Z"/></svg>